<?xml version="1.0" encoding="utf-8"?>
<!-- Generator: Adobe Illustrator 16.0.4, SVG Export Plug-In . SVG Version: 6.00 Build 0)  -->
<!DOCTYPE svg PUBLIC "-//W3C//DTD SVG 1.1//EN" "http://www.w3.org/Graphics/SVG/1.1/DTD/svg11.dtd">
<svg version="1.1" id="Layer_1" xmlns="http://www.w3.org/2000/svg" xmlns:xlink="http://www.w3.org/1999/xlink" x="0px" y="0px"
	 width="25.8px" height="30px" viewBox="0 0 25.8 30" style="enable-background:new 0 0 25.8 30;" xml:space="preserve">
<style type="text/css">
<![CDATA[
	.st0{fill:#FFFFFF;}
]]>
</style>
<polygon class="st0" points="23.6,0 2.2,0 0,0 0,2.1 0,10.5 2.2,10.5 2.2,2.1 23.6,2.1 23.6,10.3 25.8,10.3 25.8,2.1 25.8,0 "/>
<polygon class="st0" points="5.8,23.4 5.8,25.5 9.5,25.5 11.7,25.5 11.7,23.4 11.7,6.9 11.7,4.7 9.5,4.7 6.9,4.7 4.7,4.7 4.7,6.9 
	4.7,10.4 6.9,10.4 6.9,6.9 9.5,6.9 9.5,23.4 "/>
<polygon class="st0" points="16.4,4.7 14.2,4.7 14.2,6.8 14.2,23.3 14.2,25.5 16.4,25.5 20.1,25.5 20.1,23.3 16.4,23.3 16.4,6.8 
	19,6.8 19,10.4 21.2,10.4 21.2,6.8 21.2,4.7 19,4.7 "/>
<rect x="5.7" y="28" class="st0" width="14.4" height="2.1"/>
</svg>
